<svg version="1.1" id="Capa_1" xmlns="http://www.w3.org/2000/svg" xmlns:xlink="http://www.w3.org/1999/xlink" x="0px"
     y="0px" viewBox="0 0 512 512" style="enable-background:new 0 0 512 512;" xml:space="preserve"><g><g><rect x="227.76" y="25" width="56.48" height="15"></rect></g></g>
    <g><g><rect x="25" y="227.76" width="15" height="56.48"></rect></g></g>
    <g><g><rect x="472" y="273.38" width="15" height="15"></rect></g></g>
    <g><g><rect x="472" y="223.38" width="15" height="15"></rect></g></g>
    <g><g><rect x="472" y="248.38" width="15" height="15"></rect></g></g>
    <g><g><rect x="132.57" y="444.55" width="15" height="15"></rect></g></g>
    <g><g><rect x="132.57" y="469.55" width="15" height="15"></rect></g></g>
    <g><g><rect x="132.57" y="419.55" width="15" height="15"></rect></g></g>
    <g><g><path d="M282.308,125.566l-2.961,14.705c4.591,0.924,9.174,2.139,13.622,3.609l4.709-14.242 C292.658,127.979,287.488,126.609,282.308,125.566z"></path></g></g>
    <g><g><path d="M307.606,133.368l-5.836,13.819c43.908,18.542,72.278,61.254,72.277,108.813h15 C389.048,202.397,357.08,154.261,307.606,133.368z"></path></g></g>
    <g><g><path d="M255.999,122.953v15c4.702,0,9.437,0.28,14.072,0.833l1.775-14.895C266.623,123.268,261.291,122.953,255.999,122.953z"></path></g></g>
    <g><g><path d="M164.85,159.161c-3.846,3.621-7.511,7.508-10.896,11.552l11.504,9.626c3.005-3.591,6.26-7.042,9.675-10.257 L164.85,159.161z"></path></g></g>
    <g><g><path d="M126.097,227.185c-1.141,5.145-1.982,10.421-2.5,15.683l14.928,1.471c0.46-4.667,1.206-9.346,2.217-13.909 L126.097,227.185z"></path></g></g>
    <g><g><path d="M147.484,179.095c-3.06,4.306-5.891,8.839-8.414,13.471l13.174,7.173c2.238-4.11,4.75-8.132,7.467-11.954L147.484,179.095 z"></path></g></g>
    <g><g><path d="M134.378,202.064c-2.149,4.828-4.024,9.833-5.576,14.877l14.338,4.41c1.375-4.471,3.038-8.908,4.943-13.188 L134.378,202.064z"></path></g></g>
    <g><g><polygon points="394.07,67.387 377.833,83.624 388.44,94.23 394.07,88.6 428.702,123.233 439.31,112.626 "></polygon></g></g>
    <g><g><rect x="345.608" y="111.476" transform="matrix(0.7071 -0.7071 0.7071 0.7071 19.2939 284.5324)" width="15" height="15"></rect></g></g>
    <g><g><rect x="363.285" y="93.796" transform="matrix(0.7071 -0.7071 0.7071 0.7071 36.973 291.8535)" width="15" height="15"></rect></g></g>
    <g><g><path d="M371.705,343.508h-70.59l34.982-34.982v-63.909c0-44.166-35.932-80.097-80.098-80.097 c-44.166,0-80.098,35.932-80.098,80.097v63.909l34.983,34.983h-70.591l-32.725,32.724V512H404.43V376.233L371.705,343.508z M190.903,302.313v-57.696h-0.001c0-35.895,29.203-65.097,65.098-65.097s65.098,29.203,65.098,65.098v57.695l-41.196,41.196 h-47.803L190.903,302.313z M226.316,497h-41.853v-82.51h-15V497H122.57V382.446l23.938-23.938h79.243V404h7.857L226.316,497z M241.362,497l7.271-92.746h14.728l7.27,92.746H241.362z M271.242,389h-30.491v-30.491h30.491V389z M389.431,497L389.431,497 h-46.894v-82.51h-15V497h-41.859l-7.29-93h7.855v-45.491h79.25l23.938,23.938V497z"></path></g></g>
    <g><g><path d="M303.791,217.218l-13.002,7.479c3.473,6.037,5.309,12.926,5.309,19.92v50.447h15v-50.447 C311.098,235.001,308.572,225.527,303.791,217.218z"></path></g></g>
    <g><g><path d="M256,189.52v15c4.245,0,8.425,0.662,12.422,1.968l4.658-14.258C267.577,190.432,261.83,189.52,256,189.52z"></path></g></g>
    <g><g><path d="M283.628,196.958l-7.541,12.966c3.652,2.125,6.938,4.802,9.767,7.957l11.168-10.014 C293.145,203.542,288.638,199.872,283.628,196.958z"></path></g></g>
    <g><g><rect x="364.43" y="444" width="15" height="41"></rect></g></g>
    <g><g><rect x="364.43" y="394" width="15" height="15"></rect></g></g>
    <g><g><rect x="364.43" y="419" width="15" height="15"></rect></g></g>
    <g><g><rect x="156.5" y="368.51" width="53.43" height="15"></rect></g></g>
    <g><g><path d="M433.067,195.261c-2.515-7.32-5.502-14.518-8.926-21.503l55.827-55.827l-85.898-85.9l-55.786,55.786 c-6.913-3.376-14.125-6.352-21.545-8.888V0H195.261v78.933c-7.317,2.513-14.517,5.501-21.503,8.926L117.93,32.031L32.031,117.93 l55.827,55.827c-3.425,6.988-6.412,14.186-8.926,21.503H0v121.479h78.933c2.514,7.317,5.502,14.517,8.926,21.503L32.031,394.07 l57.735,57.736l10.607-10.606l-47.13-47.129l52.981-52.981l-2.58-4.892c-4.935-9.353-9.009-19.169-12.109-29.177l-1.636-5.28H15 v-91.479h74.9l1.636-5.28c3.101-10.007,7.175-19.824,12.109-29.177l2.58-4.892L53.244,117.93l64.686-64.686l52.981,52.982 l4.892-2.581c9.353-4.934,19.169-9.008,29.178-12.109l5.28-1.636V15h91.479v74.9l5.28,1.636 c10.216,3.165,20.048,7.224,29.223,12.064l4.892,2.58l52.937-52.937l64.686,64.686l-52.981,52.981l2.58,4.892 c4.933,9.349,9.007,19.166,12.109,29.178l1.637,5.28H497v91.479h-74.899l-1.637,5.28c-3.104,10.013-7.178,19.83-12.109,29.178 l-2.58,4.892l52.981,52.981l-47.13,47.129l10.607,10.606l57.735-57.736l-55.827-55.827c3.423-6.985,6.411-14.184,8.926-21.503H512 V195.261H433.067z"></path></g></g>
    <g><g><path d="M256,147.953c-59.577,0-108.047,48.47-108.047,108.047c0,14.622,2.875,28.807,8.545,42.161l13.807-5.862 c-4.878-11.489-7.352-23.702-7.352-36.298c0-51.306,41.74-93.047,93.047-93.047s93.047,41.741,93.047,93.047 c0,12.596-2.474,24.809-7.352,36.298l13.807,5.862c5.67-13.354,8.545-27.539,8.545-42.161 C364.047,196.423,315.577,147.953,256,147.953z"></path></g></g></svg>